<svg width="711" height="500" viewBox="0 0 711 500" fill="none" xmlns="http://www.w3.org/2000/svg">
<path fill-rule="evenodd" clip-rule="evenodd" d="M45.0801 23.5589L76.4477 41.7187V78.0574L45.0801 59.888V23.5589Z" fill="#A067DA"/>
<path fill-rule="evenodd" clip-rule="evenodd" d="M79.8828 41.7187V78.0574L111.241 59.888V23.5589L79.8828 41.7187Z" fill="#A067DA"/>
<path fill-rule="evenodd" clip-rule="evenodd" d="M10.2861 3.2794V39.6086L41.6442 57.7779V21.4488L10.2861 3.2794Z" fill="#A067DA"/>
<path fill-rule="evenodd" clip-rule="evenodd" d="M45.0801 100.199L76.4382 118.368V82.2775V82.0388L45.0801 63.8694V100.199Z" fill="#A067DA"/>
<path d="M678.388 382.411H110.192" stroke="#00AEEF" stroke-width="1.05" stroke-miterlimit="10" stroke-dasharray="1.05 1.05"/>
<path d="M608.292 265.409L608.292 382.411" stroke="#00AEEF" stroke-width="1.05" stroke-miterlimit="10" stroke-dasharray="1.04 1.04"/>
<path d="M710.062 265.409L710.062 382.411" stroke="#00AEEF" stroke-width="1.05" stroke-miterlimit="10" stroke-dasharray="1.04 1.04"/>
<path d="M657.832 206.908L651.934 198.716H654.556L659.143 205.27L664.058 198.716H666.68L660.454 206.908L666.352 215.1H663.73L659.143 208.546L654.228 215.1H651.606L657.832 206.908Z" fill="#D1F3FF"/>
<path d="M59.6306 206.909L53.7325 198.717H56.3539L60.9414 205.27L65.8565 198.717H68.478L62.2521 206.909L68.1503 215.101H65.5288L60.9414 208.547L56.0262 215.101H53.4048L59.6306 206.909Z" fill="#D1F3FF"/>
<path d="M658.16 440.911L652.262 432.719H654.883L659.471 439.273L664.058 432.719H666.68L660.454 440.911L666.352 449.103H663.731L659.143 442.55L654.228 449.103H651.606L658.16 440.911Z" fill="#D1F3FF"/>
<path d="M59.9584 440.911L54.0601 432.719H56.6816L61.2691 439.273L65.8566 432.719H68.478L62.2521 440.911L68.1504 449.103H65.5289L60.9414 442.55L56.0262 449.103H53.4048L59.9584 440.911Z" fill="#D1F3FF"/>
<path d="M112.107 148.407L680.303 148.083" stroke="#00AEEF" stroke-width="1.05" stroke-miterlimit="10"/>
<path d="M112.107 499.413L680.303 499.088" stroke="#00AEEF" stroke-width="1.05" stroke-miterlimit="10"/>
<path d="M112.192 382.411V265.409" stroke="#00AEEF" stroke-width="1.04631" stroke-miterlimit="10" stroke-dasharray="1.04 1.04"/>
<path d="M9.69092 382.411V265.409" stroke="#00AEEF" stroke-width="1.04631" stroke-miterlimit="10" stroke-dasharray="1.04 1.04"/>
<path d="M112.192 265.409H678.388" stroke="#00AEEF" stroke-width="1.04631" stroke-miterlimit="10" stroke-dasharray="1.05 1.05"/>
<path d="M710.062 148.407H608.292V265.409H710.062V148.407Z" stroke="#28AAE1" stroke-width="1.04631" stroke-miterlimit="10"/>
<path d="M710.062 382.411H608.292V499.413H710.062V382.411Z" stroke="#28AAE1" stroke-width="1.04631" stroke-miterlimit="10"/>
<path d="M112.192 148.409H9.69092V265.408H112.192V148.409Z" stroke="#28AAE1" stroke-width="1.04631" stroke-miterlimit="10"/>
<path d="M112.011 382.411H9.69092V499.413H112.011V382.411Z" stroke="#28AAE1" stroke-width="1.04631" stroke-miterlimit="10"/>
<path d="M111.466 3.10925H9.69092V118.538H111.466V3.10925Z" stroke="#00AEEF" stroke-width="0.622979" stroke-miterlimit="10"/>
<path d="M131.369 60.202H152.799V62.6939H131.369V60.202ZM131.369 66.6808H152.799V69.1727H131.369V66.6808Z" fill="#D1F3FF"/>
<path d="M174.228 61.6995L165.258 49.2402H169.245L176.222 59.2076L183.199 49.2402H187.186L178.215 61.6995L187.186 74.1587H183.199L176.222 64.1913L169.245 74.1587H165.258L174.228 61.6995Z" fill="#D1F3FF"/>
<path d="M267.993 352.772V305.525H249.902V296.237H296.503V305.525H278.493V352.772H267.993ZM313.889 353.66C301.936 353.66 293.456 344.776 293.456 332.258C293.456 319.416 302.017 310.774 313.486 310.774C325.116 310.774 333.515 318.932 333.515 331.369V335.084H303.39C303.956 341.465 307.671 345.907 313.889 345.907C318.655 345.907 321.32 343.726 322.935 339.769L332.223 341.222C329.961 348.814 324.146 353.66 313.889 353.66ZM313.486 318.528C308.236 318.528 304.44 322.243 303.552 328.139H323.42C322.693 322.081 319.058 318.528 313.486 318.528ZM340.659 352.772V311.663H350.028V313.359C350.028 315.62 349.947 317.397 349.301 320.628L350.27 320.87C351.804 315.459 354.631 311.663 361.254 311.663H364.242V321.597H360.123C354.066 321.597 350.754 325.231 350.754 332.015V352.772H340.659ZM369.595 352.772V311.663H378.964V313.359C378.964 315.62 378.883 317.397 378.237 320.628L379.206 320.87C380.741 315.459 383.567 311.663 390.19 311.663H393.178V321.597H389.059C383.002 321.597 379.691 325.231 379.691 332.015V352.772H369.595ZM408.253 353.418C400.015 353.418 394.685 348.895 394.685 341.788C394.685 333.308 400.742 330.562 407.93 328.866L420.287 325.958V325.07C420.287 320.789 417.541 318.124 413.18 318.124C408.738 318.124 406.153 320.547 405.346 324.424L396.462 323.374C397.835 315.701 404.296 310.774 413.584 310.774C423.679 310.774 430.383 317.155 430.383 326.523V343.403C430.383 344.453 430.625 344.857 431.432 344.857H433.613V352.772H427.556C423.679 352.772 421.902 351.56 421.902 348.249C421.902 347.28 422.064 346.068 422.468 344.615L421.579 344.291C418.753 350.591 414.472 353.418 408.253 353.418ZM404.78 340.819C404.78 344.049 407.123 346.068 410.838 346.068C416.41 346.068 420.287 342.03 420.287 335.65V332.5L411.161 334.681C406.719 335.73 404.78 337.265 404.78 340.819ZM443.736 352.772V319.739H436.306V311.663H443.736V305.283C443.736 297.852 447.209 294.622 455.286 294.622H464.412V302.617H457.062C454.639 302.617 453.67 303.748 453.67 306.413V311.663H463.281V319.739H453.832V352.772H443.736ZM486.895 353.66C474.78 353.66 466.057 344.776 466.057 332.258C466.057 319.739 474.699 310.774 486.895 310.774C499.009 310.774 507.812 319.739 507.812 332.258C507.812 344.695 499.009 353.66 486.895 353.66ZM486.895 345.503C493.436 345.503 497.717 340.173 497.717 332.258C497.717 324.343 493.436 319.012 486.895 319.012C480.433 319.012 476.072 324.343 476.072 332.258C476.072 340.173 480.433 345.503 486.895 345.503ZM514.838 352.772V311.663H524.206V313.359C524.206 315.62 524.125 317.397 523.479 320.628L524.448 320.87C525.983 315.459 528.81 311.663 535.432 311.663H538.421V321.597H534.302C528.244 321.597 524.933 325.231 524.933 332.015V352.772H514.838ZM543.774 352.772V311.663H553.627V313.44C553.627 315.62 553.465 317.074 552.9 319.982L553.869 320.224C555.969 313.843 560.088 310.774 566.549 310.774C573.091 310.774 577.372 313.763 578.906 320.062H579.794C581.975 313.843 586.094 310.774 592.232 310.774C600.712 310.774 605.235 316.266 605.235 325.716V352.772H595.705V326.039C595.705 321.355 593.363 318.77 589.163 318.77C583.671 318.77 579.794 323.374 579.794 330.158V352.772H569.699V326.039C569.699 321.355 567.438 318.77 563.238 318.77C557.827 318.77 553.869 323.374 553.869 330.158V352.772H543.774Z" fill="white"/>
<path fill-rule="evenodd" clip-rule="evenodd" d="M147.802 285.774L179.169 303.934V340.273L147.802 322.103V285.774Z" fill="#A067DA"/>
<path fill-rule="evenodd" clip-rule="evenodd" d="M182.604 303.934V340.273L213.962 322.103V285.774L182.604 303.934Z" fill="#A067DA"/>
<path fill-rule="evenodd" clip-rule="evenodd" d="M113.008 265.495V301.824L144.366 319.993V283.664L113.008 265.495Z" fill="#A067DA"/>
<path fill-rule="evenodd" clip-rule="evenodd" d="M147.802 362.414L179.16 380.583V344.493V344.254L147.802 326.085V362.414Z" fill="#A067DA"/>
</svg>
